<svg xmlns="http://www.w3.org/2000/svg" version="1.1" xmlns:xlink="http://www.w3.org/1999/xlink" xmlns:svgjs="http://svgjs.dev/svgjs" width="700" height="187" preserveAspectRatio="none" viewBox="0 0 700 187"><g mask="url(&quot;#SvgjsMask2100&quot;)" fill="none"><rect width="700" height="187" x="0" y="0" fill="url(&quot;#SvgjsLinearGradient2101&quot;)"></rect><path d="M700 0L590.1 0L700 83.23z" fill="rgba(255, 255, 255, .1)"></path><path d="M590.1 0L700 83.23L700 100.74000000000001L490.17 0z" fill="rgba(255, 255, 255, .075)"></path><path d="M490.16999999999996 0L700 100.74000000000001L700 148.57L310.97999999999996 0z" fill="rgba(255, 255, 255, .05)"></path><path d="M310.98 0L700 148.57L700 170.76L109.99000000000001 0z" fill="rgba(255, 255, 255, .025)"></path><path d="M0 187L164.31 187L0 133.74z" fill="rgba(0, 0, 0, .1)"></path><path d="M0 133.74L164.31 187L207.68 187L0 120.11000000000001z" fill="rgba(0, 0, 0, .075)"></path><path d="M0 120.11L207.68 187L276.79 187L0 61.8z" fill="rgba(0, 0, 0, .05)"></path><path d="M0 61.8L276.79 187L307.19 187L0 45.69z" fill="rgba(0, 0, 0, .025)"></path></g><defs><mask id="SvgjsMask2100"><rect width="700" height="187" fill="#ffffff"></rect></mask><linearGradient x1="0%" y1="50%" x2="100%" y2="50%" gradientUnits="userSpaceOnUse" id="SvgjsLinearGradient2101"><stop stop-color="rgba(14, 42, 71, 1)" offset="0"></stop><stop stop-color="rgba(180, 180, 184, 1)" offset="0"></stop></linearGradient></defs></svg>